<svg width="700" height="700" viewBox="0 0 700 700" fill="none" xmlns="http://www.w3.org/2000/svg">
<path d="M349.906 170.416C250.528 170.416 170.325 250.62 170.325 350C170.325 449.38 250.528 529.584 349.906 529.584C449.284 529.584 529.486 449.38 529.486 350C529.486 250.62 449.284 170.416 349.906 170.416ZM349.906 466.716C285.639 466.716 233.192 414.268 233.192 350C233.192 285.732 285.639 233.284 349.906 233.284C414.173 233.284 466.62 285.732 466.62 350C466.62 414.268 414.173 466.716 349.906 466.716ZM536.841 121.208C513.639 121.208 494.901 139.946 494.901 163.149C494.901 186.352 513.639 205.09 536.841 205.09C560.044 205.09 578.781 186.439 578.781 163.149C578.788 157.639 577.708 152.182 575.603 147.091C573.498 141.999 570.409 137.373 566.513 133.477C562.617 129.581 557.991 126.492 552.899 124.386C547.808 122.281 542.351 121.201 536.841 121.208V121.208ZM699.961 350C699.961 301.667 700.399 253.772 697.684 205.527C694.97 149.49 682.187 99.7559 641.21 58.7782C600.145 17.713 550.5 5.01691 494.463 2.30258C446.132 -0.411753 398.238 0.026044 349.993 0.026044C301.662 0.026044 253.768 -0.411753 205.524 2.30258C149.487 5.01691 99.7541 17.8005 58.7771 58.7782C17.7127 99.8435 5.01682 149.49 2.30254 205.527C-0.411745 253.86 0.0260435 301.755 0.0260435 350C0.0260435 398.245 -0.411745 446.228 2.30254 494.473C5.01682 550.51 17.8002 600.244 58.7771 641.222C99.8416 682.287 149.487 694.983 205.524 697.697C253.855 700.412 301.749 699.974 349.993 699.974C398.325 699.974 446.219 700.412 494.463 697.697C550.5 694.983 600.233 682.199 641.21 641.222C682.274 600.156 694.97 550.51 697.684 494.473C700.486 446.228 699.961 398.333 699.961 350V350ZM622.91 556.464C616.519 572.4 608.814 584.308 596.468 596.567C584.122 608.912 572.302 616.618 556.367 623.009C510.311 641.309 400.952 637.194 349.906 637.194C298.86 637.194 189.413 641.309 143.358 623.097C127.422 616.705 115.514 609 103.256 596.654C90.9108 584.308 83.2057 572.488 76.814 556.552C58.602 510.408 62.7172 401.047 62.7172 350C62.7172 298.953 58.602 189.504 76.814 143.448C83.2057 127.512 90.9108 115.604 103.256 103.346C115.602 91.0876 127.422 83.2948 143.358 76.903C189.413 58.6907 298.86 62.806 349.906 62.806C400.952 62.806 510.399 58.6907 556.454 76.903C572.39 83.2948 584.297 91 596.556 103.346C608.901 115.692 616.606 127.512 622.998 143.448C641.21 189.504 637.095 298.953 637.095 350C637.095 401.047 641.21 510.408 622.91 556.464Z" fill="#5E6365"/>
</svg>
