<svg width="800" height="800" viewBox="0 0 800 800" fill="none" xmlns="http://www.w3.org/2000/svg">
<path d="M768 0H32C14.3 0 0 14.3 0 32V768C0 785.7 14.3 800 32 800H768C785.7 800 800 785.7 800 768V32C800 14.3 785.7 0 768 0ZM237.3 681.7H118.6V299.9H237.3V681.7ZM178 247.7C164.393 247.7 151.091 243.665 139.777 236.105C128.463 228.545 119.644 217.8 114.437 205.229C109.23 192.657 107.867 178.824 110.522 165.478C113.177 152.132 119.729 139.873 129.351 130.251C138.973 120.629 151.232 114.077 164.578 111.422C177.924 108.767 191.757 110.13 204.329 115.337C216.9 120.544 227.645 129.363 235.205 140.677C242.765 151.991 246.8 165.293 246.8 178.9C246.7 216.9 215.9 247.7 178 247.7ZM681.7 681.7H563.1V496C563.1 451.7 562.3 394.8 501.4 394.8C439.7 394.8 430.2 443 430.2 492.8V681.7H311.7V299.9H425.5V352.1H427.1C442.9 322.1 481.6 290.4 539.4 290.4C659.6 290.4 681.7 369.5 681.7 472.3V681.7Z" fill="#5E6365"/>
</svg>
